Coordinates
version=1
nRows=19
nColumns=36
inDegrees=yes

Units are S.I. units (second, meters, Newtons, ...)
If the header above contains a line with 'inDegrees', this indicates whether rotational values are in degrees (yes) or radians (no).

endheader
time	pelvis_tilt	pelvis_list	pelvis_rotation	pelvis_tx	pelvis_ty	pelvis_tz	hip_flexion_r	hip_adduction_r	hip_rotation_r	knee_angle_r	knee_angle_r_beta	ankle_angle_r	subtalar_angle_r	mtp_angle_r	hip_flexion_l	hip_adduction_l	hip_rotation_l	knee_angle_l	knee_angle_l_beta	ankle_angle_l	subtalar_angle_l	mtp_angle_l	lumbar_extension	lumbar_bending	lumbar_rotation	arm_flex_r	arm_add_r	arm_rot_r	elbow_flex_r	pro_sup_r	arm_flex_l	arm_add_l	arm_rot_l	elbow_flex_l	pro_sup_l
      1.26666670	    -16.56048741	      0.15691389	     -0.65522009	     -0.74162489	      1.17146210	     -0.09359529	     47.39400433	     -3.22213970	      3.09611269	     70.66547525	      1.23334521	     30.94548704	     -6.96485575	     -7.49999895	     45.45967301	      0.74181084	      2.84741507	     69.15936307	      1.20705859	     35.35499617	     -9.51564380	     -7.49999895	    -44.96235201	     -0.73904664	      2.67517100	     27.81271694	    -14.70408724	      5.78085841	     45.80531752	     77.43011952	     28.55248700	     -7.13929126	     15.19257643	     59.08520528	     74.15473751
      1.28333330	    -16.98840709	      0.35773795	     -0.86891229	     -0.73455511	      1.17074700	     -0.08860948	     48.53006000	     -3.36154959	      3.88054461	     72.35357694	      1.26280814	     31.13316244	     -6.69664839	     -7.49999916	     46.15939599	      1.41846979	      2.93566316	     70.53895067	      1.23113694	     35.19413676	    -10.68042575	     -7.49999916	    -44.03832353	     -0.24926155	      2.48837625	     32.90591582	    -17.08864541	      7.27979149	     50.47690007	     83.84427625	     32.17832706	     -6.20465407	     15.17840403	     68.37182898	     90.30993383
      1.30000000	    -17.46620048	      0.34592353	     -0.98758463	     -0.72083091	      1.16208816	     -0.07924719	     48.91084696	     -3.13154599	      4.05907551	     73.35288547	      1.28024937	     31.66656210	     -6.10306867	     -7.49999922	     46.43987407	      1.53775502	      3.32305315	     71.54549096	      1.24870438	     35.15023370	    -11.06718124	     -7.49999922	    -42.40571151	      0.13796442	      3.06848612	     36.59273173	    -19.22485660	      8.15994867	     60.28787969	     83.31769023	     38.50707474	     -5.62226059	     15.77290098	     78.94166507	     89.67046132
      1.31666670	    -17.88600728	      0.22322210	     -0.95527911	     -0.71332201	      1.16099187	     -0.07502406	     49.27811637	     -2.61931229	      3.92295084	     74.53206597	      1.30082995	     31.85296248	     -5.84801899	     -7.49999925	     46.56382731	      1.29551120	      3.73007792	     72.28749665	      1.26165482	     34.84395560	    -11.44793636	     -7.49999925	    -40.32651332	      0.69386946	      3.20234704	     40.00798277	    -21.15593899	      9.42221773	     72.69361619	     83.49719561	     45.89298747	     -3.89742459	     16.23369228	     87.45992463	     89.24141028
      1.33333330	    -18.31133713	      0.30708738	     -0.68975936	     -0.70326049	      1.16709925	     -0.07078913	     48.99466683	     -2.31061090	      3.70348423	     74.91383245	      1.30749303	     31.77785551	     -5.83707873	     -7.49999934	     46.19201897	      1.14760695	      4.09523888	     72.17956060	      1.25977099	     34.15089773	    -11.89423457	     -7.49999934	    -37.99101772	     -0.08601236	      4.36879476	     41.31359957	    -23.46310218	      8.20866022	     87.35732806	     83.25716424	     54.11107136	     -1.33813468	     19.29719339	     90.24765867	     85.63192362
      1.35000000	    -18.76683294	      0.37637184	     -0.58012105	     -0.68458283	      1.15813739	     -0.06690541	     48.83889189	     -2.06171462	      3.59148069	     75.88888004	      1.32451082	     31.99320937	     -5.51335760	     -7.49999935	     45.55112109	      0.85366027	      4.33795999	     72.15979027	      1.25942593	     34.10976159	    -12.03188626	     -7.49999935	    -34.19970513	     -0.94315437	      4.36601236	     43.78518517	    -23.39599275	     10.22984114	     98.27058756	     84.83401711	     55.41006500	     -1.64422042	     23.29734018	     99.07782507	     86.27658860
      1.36666670	    -18.53188888	      0.32432769	     -0.42399812	     -0.64606017	      1.17343884	     -0.06928265	     45.97240869	     -2.02296512	      3.33777354	     74.77247425	      1.30502587	     31.66409684	     -4.66605502	     -7.49999941	     42.69279695	      0.94639432	      4.96576930	     70.69486052	      1.23385808	     33.42908692	    -11.99680684	     -7.49999941	    -30.64828550	     -0.97682162	      5.10740000	     44.25213178	    -24.36170080	     15.02291061	    105.76953797	     92.55984588	     52.83938140	     -1.43545052	     23.20236010	    107.54438667	     88.86466087
      1.38333330	    -17.14373464	      0.12946132	     -0.07933363	     -0.62844086	      1.18590581	     -0.07525265	     41.34165691	     -2.08379543	      3.03031003	     72.43891306	      1.26429754	     30.96906181	     -4.40146835	     -7.49999941	     38.49302912	      1.17959262	      5.56611032	     68.73445109	      1.19964248	     32.42669590	    -12.04475132	     -7.49999941	    -28.30403140	     -1.01724535	      5.83544090	     50.25479203	    -27.64622187	     23.35861216	    111.30875206	     92.96955678	     60.76873786	     -1.75263303	     24.23603168	    107.66098106	     87.98304284
      1.40000000	    -15.90746856	     -0.05944753	      0.07409979	     -0.60965211	      1.20061089	     -0.07245039	     36.57091871	     -1.88265244	      2.85311737	     69.16953759	      1.20723617	     29.69357022	     -4.25281879	     -7.49999944	     34.06503665	      1.34130910	      6.11872367	     65.87527762	      1.14974049	     30.79014064	    -12.31087943	     -7.49999944	    -26.31759154	     -0.77640375	      3.70294433	     61.40707441	    -27.61685280	     30.47312059	    112.28394055	     96.20177225	     64.60273586	     -5.65616990	     24.80282238	    107.20286498	     89.01580098
      1.41666670	    -15.10304131	      0.01182879	     -0.30221888	     -0.57996313	      1.21145464	     -0.06003287	     31.94482975	     -1.43959747	      2.99413422	     65.37809623	      1.14106304	     28.42738141	     -4.18065212	     -7.49999950	     29.60713054	      1.00050347	      6.03493947	     62.45991759	      1.09013121	     29.36791480	    -11.64393405	     -7.49999950	    -23.15197069	     -1.26218891	      3.63581637	     67.21688259	    -27.73824770	     32.35136631	    111.84540598	     96.62061250	     66.16347060	     -9.26496964	     27.11309509	    107.03419149	     89.95273609
      1.43333330	    -14.44476196	     -0.18814249	      0.02750772	     -0.55993754	      1.24675081	     -0.05808884	     26.63195397	     -0.85863014	      2.44415157	     59.38810973	      1.03651805	     25.38171595	     -4.76934623	     -7.49999955	     25.42096396	      0.40907568	      6.50094495	     57.97000444	      1.01176744	     25.34910568	    -11.95576482	     -7.49999955	    -20.47077421	     -1.06739316	      4.10161075	     68.81229239	    -28.01970779	     34.58427354	    110.43331822	     95.98814324	     65.55063955	    -12.16785106	     30.16867218	    107.39400037	     89.90462389
      1.45000000	    -13.87863602	     -0.27446061	      0.47504525	     -0.53040075	      1.26198578	     -0.06491679	     21.38662157	     -0.94642133	      1.79437865	     53.34643927	      0.93107101	     22.26323684	     -4.21384262	     -7.49999956	     21.67544979	     -0.12522126	      6.42378033	     54.68156994	      0.95437344	     21.01601549	    -11.86913774	     -7.49999956	    -17.79095875	     -0.60468365	      4.36298304	     70.25746573	    -28.81285733	     36.75270512	    110.83718489	     94.47091521	     68.76664548	    -12.95083532	     33.59728014	    109.23439332	     88.72676242
      1.46666670	    -13.69591444	     -0.30645930	      0.64217680	     -0.48980369	      1.28086280	     -0.06429525	     16.05361638	     -1.17948932	      0.77533730	     46.57398944	      0.81286946	     17.62833462	     -4.08670053	     -7.49999956	     17.62228802	     -0.77670440	      5.82036714	     50.36264208	      0.87899392	     15.99444409	    -11.68203177	     -7.49999956	    -14.36821511	     -0.68371493	      4.08734336	     72.45542676	    -28.65720507	     37.72172187	    113.17841759	     95.29452445	     70.29121161	    -13.92555713	     35.66765759	    111.21421837	     89.61910544
      1.48333330	    -13.47778650	     -0.78994437	      0.37408958	     -0.47124006	      1.30504644	     -0.06181944	     11.93590408	     -0.77205833	     -0.34824846	     40.95797355	      0.71485149	     11.85419293	     -4.12900963	     -7.49999956	     14.75815117	     -1.43402783	      5.62520716	     46.69782403	      0.81503078	     10.60888154	    -11.94294978	     -7.49999956	    -11.29853715	     -0.51736110	      3.65059441	     74.59005070	    -27.83297439	     38.10939571	    114.46819415	     95.73478870	     71.51601418	    -15.25998494	     36.33983908	    113.26810558	     90.36816263
      1.50000000	    -13.31337248	     -0.65117400	     -0.01207688	     -0.45885827	      1.31501222	     -0.06217159	      9.93309547	     -1.32336389	     -1.23306734	     38.42454020	      0.67063474	      6.47814949	     -3.60122575	     -7.49999956	     13.97017173	     -1.18490661	      4.68880500	     45.62051316	      0.79622816	      5.23943325	    -13.10142120	     -7.49999956	     -9.10888341	     -0.85761383	      1.79326728	     76.66604070	    -26.80993664	     37.27515748	    115.82378945	     96.01055276	     74.33322442	    -15.65425432	     36.02429575	    112.53363743	     90.73718603
      1.51666670	    -13.13129893	     -0.47464233	      0.05832617	     -0.43539333	      1.34893142	     -0.05572007	      8.88877434	     -1.80021944	     -2.03652913	     36.14752265	      0.63089329	     -0.76313630	     -3.20266120	     -7.49999957	     13.22367542	     -1.19135216	      4.63911421	     43.48694617	      0.75899039	     -1.66527623	    -12.68364467	     -7.49999957	     -7.68055835	     -1.47297015	      1.92987447	     77.31857433	    -29.10811609	     34.43846675	    119.55293648	     97.50988622	     76.39271990	    -15.12842066	     36.10031130	    113.47696240	     92.76702710
      1.53333330	    -12.72981742	      0.02314517	      0.82562263	     -0.40038854	      1.36465433	     -0.05816296	      7.46156117	     -2.44865925	     -2.69716028	     33.99174460	      0.59326786	     -7.69615271	     -3.52879606	     -7.49999958	     12.36512085	     -0.96593939	      4.74402372	     42.17347096	      0.73606593	     -8.12518000	    -12.02281124	     -7.49999958	     -6.39111085	     -2.18499939	      1.14454664	     79.75499325	    -30.65720789	     35.28050634	    118.78407667	     97.73950234	     79.08608899	    -15.25324866	     38.17485897	    112.32665108	     93.12472963
      1.55000000	    -12.28162305	      0.58378257	      1.36793377	     -0.37840655	      1.37833044	     -0.06861365	      6.66724280	     -3.67280683	     -3.83867945	     33.60862149	      0.58658110	    -12.78949967	     -4.50352576	     -7.49999959	     12.28869639	     -0.43664081	      4.61919923	     42.74304186	      0.74600681	    -12.49680129	    -12.00502841	     -7.49999959	     -5.46133304	     -2.46926472	      0.96878690	     82.67549906	    -31.29052881	     35.07531711	    118.02778446	     97.60773638	     80.52854488	    -15.30099738	     39.66183733	    110.10300496	     93.24550106
      1.56666670	    -11.72376850	      0.79388616	      1.86418352	     -0.36523107	      1.41202800	     -0.07007541	      6.63806535	     -4.79412959	     -5.30108580	     33.61895617	      0.58676148	    -16.79022854	     -5.65860129	     -7.49999961	     13.25819660	      0.12806823	      5.34359207	     43.86335948	      0.76556004	    -15.13952445	    -12.32470874	     -7.49999961	     -6.49146776	     -3.65416196	      0.70287728	     83.31515325	    -33.82690457	     33.85398196	    118.87621214	     98.19120160	     82.95915113	    -10.75735726	     40.08452175	    107.75680691	     93.90098851
